<?xml version="1.0" encoding="UTF-8" standalone="no"?>
<!DOCTYPE svg PUBLIC "-//W3C//DTD SVG 1.1//EN"
 "http://www.w3.org/Graphics/SVG/1.1/DTD/svg11.dtd">
<!-- Generated by graphviz version 13.1.2 (20250808.2320)
 -->
<!-- Pages: 1 -->
<svg width="6090pt" height="950pt"
 viewBox="0.00 0.00 6090.00 950.00" xmlns="http://www.w3.org/2000/svg" xmlns:xlink="http://www.w3.org/1999/xlink">
<g id="graph0" class="graph" transform="scale(4.16667 4.16667) rotate(0) translate(4 224)">
<polygon fill="white" stroke="none" points="-4,4 -4,-224 1457.59,-224 1457.59,4 -4,4"/>
<g id="clust1" class="cluster">
<title>cluster_photonic</title>
<polygon fill="none" stroke="blue" stroke-dasharray="5,2" points="8,-56 8,-154 416.33,-154 416.33,-56 8,-56"/>
<text xml:space="preserve" text-anchor="middle" x="212.17" y="-136.7" font-family="Times New Roman,serif" font-size="14.00">Photonic Layer</text>
</g>
<g id="clust2" class="cluster">
<title>cluster_logic</title>
<polygon fill="none" stroke="darkgreen" stroke-dasharray="5,2" points="557.79,-114 557.79,-212 1048.23,-212 1048.23,-114 557.79,-114"/>
<text xml:space="preserve" text-anchor="middle" x="803.01" y="-194.7" font-family="Times New Roman,serif" font-size="14.00">Logic Layer</text>
</g>
<g id="clust3" class="cluster">
<title>cluster_ml</title>
<polygon fill="none" stroke="orange" stroke-dasharray="5,2" points="1250.84,-56 1250.84,-138 1445.59,-138 1445.59,-56 1250.84,-56"/>
<text xml:space="preserve" text-anchor="middle" x="1348.21" y="-120.7" font-family="Times New Roman,serif" font-size="14.00">Computation Layer</text>
</g>
<g id="clust4" class="cluster">
<title>cluster_app</title>
<polygon fill="none" stroke="purple" stroke-dasharray="5,2" points="861.37,-8 861.37,-106 1102.59,-106 1102.59,-8 861.37,-8"/>
<text xml:space="preserve" text-anchor="middle" x="981.98" y="-88.7" font-family="Times New Roman,serif" font-size="14.00">Application Layer</text>
</g>
<g id="clust5" class="cluster">
<title>cluster_feedback</title>
<polygon fill="none" stroke="red" stroke-dasharray="5,2" points="549.58,-24 549.58,-106 740.33,-106 740.33,-24 549.58,-24"/>
<text xml:space="preserve" text-anchor="middle" x="644.96" y="-88.7" font-family="Times New Roman,serif" font-size="14.00">Feedback / Robustness Analysis</text>
</g>
<!-- A -->
<g id="node1" class="node">
<title>A</title>
<ellipse fill="lightblue" stroke="black" cx="94.67" cy="-93" rx="78.67" ry="28.99"/>
<text xml:space="preserve" text-anchor="middle" x="94.67" y="-96.2" font-family="Times New Roman,serif" font-size="14.00">Laser Input</text>
<text xml:space="preserve" text-anchor="middle" x="94.67" y="-79.7" font-family="Times New Roman,serif" font-size="14.00">(Intensity Coded)</text>
</g>
<!-- B -->
<g id="node2" class="node">
<title>B</title>
<polygon fill="lightyellow" stroke="black" points="408.33,-113.5 278.33,-113.5 278.33,-72.5 408.33,-72.5 408.33,-113.5"/>
<text xml:space="preserve" text-anchor="middle" x="343.33" y="-96.2" font-family="Times New Roman,serif" font-size="14.00">Microring Resonator</text>
<text xml:space="preserve" text-anchor="middle" x="343.33" y="-79.7" font-family="Times New Roman,serif" font-size="14.00">(NOT Gate)</text>
</g>
<!-- A&#45;&gt;B -->
<g id="edge1" class="edge">
<title>A&#45;&gt;B</title>
<path fill="none" stroke="black" d="M173.71,-93C203.37,-93 237.08,-93 266.52,-93"/>
<polygon fill="black" stroke="black" points="266.49,-96.5 276.49,-93 266.49,-89.5 266.49,-96.5"/>
<text xml:space="preserve" text-anchor="middle" x="225.83" y="-96.2" font-family="Times New Roman,serif" font-size="14.00"> Input Light </text>
</g>
<!-- C -->
<g id="node3" class="node">
<title>C</title>
<ellipse fill="lightgreen" stroke="black" cx="644.46" cy="-151" rx="78.67" ry="28.99"/>
<text xml:space="preserve" text-anchor="middle" x="644.46" y="-154.2" font-family="Times New Roman,serif" font-size="14.00">Drop Port Output</text>
<text xml:space="preserve" text-anchor="middle" x="644.46" y="-137.7" font-family="Times New Roman,serif" font-size="14.00">(Inverted Signal)</text>
</g>
<!-- B&#45;&gt;C -->
<g id="edge2" class="edge">
<title>B&#45;&gt;C</title>
<path fill="none" stroke="black" d="M408.5,-105.44C453.73,-114.21 514.63,-126.02 563.09,-135.42"/>
<polygon fill="black" stroke="black" points="562.21,-138.81 572.69,-137.28 563.54,-131.94 562.21,-138.81"/>
<text xml:space="preserve" text-anchor="middle" x="482.96" y="-133.78" font-family="Times New Roman,serif" font-size="14.00"> Inverted Signal </text>
</g>
<!-- H -->
<g id="node7" class="node">
<title>H</title>
<polygon fill="mistyrose" stroke="black" points="715.83,-73.5 573.08,-73.5 573.08,-32.5 715.83,-32.5 715.83,-73.5"/>
<text xml:space="preserve" text-anchor="middle" x="644.46" y="-56.2" font-family="Times New Roman,serif" font-size="14.00">Monte Carlo Analysis</text>
<text xml:space="preserve" text-anchor="middle" x="644.46" y="-39.7" font-family="Times New Roman,serif" font-size="14.00">(SNR, BER, Detuning)</text>
</g>
<!-- B&#45;&gt;H -->
<g id="edge8" class="edge">
<title>B&#45;&gt;H</title>
<path fill="none" stroke="red" stroke-dasharray="5,2" d="M408.65,-86.72C446.78,-82.76 496.02,-77.22 539.58,-71 546.68,-69.99 554.04,-68.86 561.41,-67.68"/>
<polygon fill="red" stroke="red" points="561.78,-71.17 571.09,-66.1 560.65,-64.26 561.78,-71.17"/>
<text xml:space="preserve" text-anchor="middle" x="482.96" y="-87.82" font-family="Times New Roman,serif" font-size="14.00"> Performance Data </text>
</g>
<!-- E -->
<g id="node4" class="node">
<title>E</title>
<polygon fill="#fff68f" stroke="black" points="1040.23,-167.5 923.73,-167.5 923.73,-126.5 1040.23,-126.5 1040.23,-167.5"/>
<text xml:space="preserve" text-anchor="middle" x="981.98" y="-150.2" font-family="Times New Roman,serif" font-size="14.00">Logic Network</text>
<text xml:space="preserve" text-anchor="middle" x="981.98" y="-133.7" font-family="Times New Roman,serif" font-size="14.00">(AND, OR, XOR)</text>
</g>
<!-- C&#45;&gt;E -->
<g id="edge3" class="edge">
<title>C&#45;&gt;E</title>
<path fill="none" stroke="black" d="M723.28,-150.07C780.3,-149.39 857,-148.48 911.87,-147.82"/>
<polygon fill="black" stroke="black" points="911.76,-151.33 921.72,-147.71 911.67,-144.33 911.76,-151.33"/>
<text xml:space="preserve" text-anchor="middle" x="804.5" y="-152.79" font-family="Times New Roman,serif" font-size="14.00"> Cascaded Gates </text>
</g>
<!-- F -->
<g id="node5" class="node">
<title>F</title>
<polygon fill="gold" stroke="black" points="1437.59,-105.5 1258.84,-105.5 1258.84,-64.5 1437.59,-64.5 1437.59,-105.5"/>
<text xml:space="preserve" text-anchor="middle" x="1348.21" y="-88.2" font-family="Times New Roman,serif" font-size="14.00">Regression / ML Block</text>
<text xml:space="preserve" text-anchor="middle" x="1348.21" y="-71.7" font-family="Times New Roman,serif" font-size="14.00">(Linear Regression, NN Unit)</text>
</g>
<!-- E&#45;&gt;F -->
<g id="edge4" class="edge">
<title>E&#45;&gt;F</title>
<path fill="none" stroke="black" d="M1040.69,-137.18C1096.06,-127.75 1180.82,-113.32 1247.19,-102.03"/>
<polygon fill="black" stroke="black" points="1247.75,-105.48 1257.02,-100.35 1246.57,-98.58 1247.75,-105.48"/>
<text xml:space="preserve" text-anchor="middle" x="1176.71" y="-126.58" font-family="Times New Roman,serif" font-size="14.00"> Computation Stage </text>
</g>
<!-- G -->
<g id="node6" class="node">
<title>G</title>
<ellipse fill="palegreen" stroke="black" cx="981.98" cy="-45" rx="112.61" ry="28.99"/>
<text xml:space="preserve" text-anchor="middle" x="981.98" y="-48.2" font-family="Times New Roman,serif" font-size="14.00">Output Prediction</text>
<text xml:space="preserve" text-anchor="middle" x="981.98" y="-31.7" font-family="Times New Roman,serif" font-size="14.00">(ML/Computation Result)</text>
</g>
<!-- F&#45;&gt;G -->
<g id="edge5" class="edge">
<title>F&#45;&gt;G</title>
<path fill="none" stroke="black" d="M1258.54,-77.62C1214.59,-73.73 1160.74,-68.6 1112.59,-63 1105.85,-62.22 1098.92,-61.37 1091.93,-60.49"/>
<polygon fill="black" stroke="black" points="1092.8,-57.07 1082.43,-59.27 1091.91,-64.01 1092.8,-57.07"/>
<text xml:space="preserve" text-anchor="middle" x="1176.71" y="-79.17" font-family="Times New Roman,serif" font-size="14.00"> Result </text>
</g>
<!-- G&#45;&gt;F -->
<g id="edge6" class="edge">
<title>G&#45;&gt;F</title>
<path fill="none" stroke="purple" stroke-dasharray="5,2" d="M1087.65,-34.6C1134.85,-32.31 1191.05,-32.92 1240.84,-42.5 1259.11,-46.02 1278.24,-52.64 1295.15,-59.63"/>
<polygon fill="purple" stroke="purple" points="1293.41,-62.69 1303.98,-63.41 1296.17,-56.26 1293.41,-62.69"/>
<text xml:space="preserve" text-anchor="middle" x="1176.71" y="-45.7" font-family="Times New Roman,serif" font-size="14.00"> Feedback for Training </text>
</g>
<!-- H&#45;&gt;B -->
<g id="edge7" class="edge">
<title>H&#45;&gt;B</title>
<path fill="none" stroke="red" stroke-dasharray="5,2" d="M572.66,-45.89C529.79,-43.45 474.31,-43.62 426.33,-54.5 414.24,-57.24 401.81,-61.95 390.41,-67.15"/>
<polygon fill="red" stroke="red" points="389.13,-63.88 381.63,-71.36 392.16,-70.19 389.13,-63.88"/>
<text xml:space="preserve" text-anchor="middle" x="482.96" y="-57.7" font-family="Times New Roman,serif" font-size="14.00"> Design Refinement </text>
</g>
</g>
</svg>
