<?xml version="1.0" encoding="UTF-8" standalone="no"?>
<!DOCTYPE svg PUBLIC "-//W3C//DTD SVG 1.1//EN"
 "http://www.w3.org/Graphics/SVG/1.1/DTD/svg11.dtd">
<!-- Generated by graphviz version 13.1.2 (20250808.2320)
 -->
<!-- Pages: 1 -->
<svg width="6798pt" height="825pt"
 viewBox="0.00 0.00 6798.00 825.00" xmlns="http://www.w3.org/2000/svg" xmlns:xlink="http://www.w3.org/1999/xlink">
<g id="graph0" class="graph" transform="scale(4.16667 4.16667) rotate(0) translate(4 194)">
<polygon fill="white" stroke="none" points="-4,4 -4,-194 1627.44,-194 1627.44,4 -4,4"/>
<g id="clust1" class="cluster">
<title>cluster_photonic</title>
<polygon fill="none" stroke="blue" stroke-dasharray="5,2" points="8,-51 8,-149 416.33,-149 416.33,-51 8,-51"/>
<text xml:space="preserve" text-anchor="middle" x="212.17" y="-131.7" font-family="Times New Roman,serif" font-size="14.00">Photonic Layer</text>
</g>
<g id="clust2" class="cluster">
<title>cluster_logic</title>
<polygon fill="none" stroke="darkgreen" stroke-dasharray="5,2" points="529.33,-8 529.33,-182 984.97,-182 984.97,-8 529.33,-8"/>
<text xml:space="preserve" text-anchor="middle" x="757.15" y="-164.7" font-family="Times New Roman,serif" font-size="14.00">Logic Layer</text>
</g>
<g id="clust3" class="cluster">
<title>cluster_ml</title>
<polygon fill="none" stroke="orange" stroke-dasharray="5,2" points="1117.47,-92 1117.47,-174 1312.22,-174 1312.22,-92 1117.47,-92"/>
<text xml:space="preserve" text-anchor="middle" x="1214.85" y="-156.7" font-family="Times New Roman,serif" font-size="14.00">Computation Layer</text>
</g>
<g id="clust4" class="cluster">
<title>cluster_app</title>
<polygon fill="none" stroke="purple" stroke-dasharray="5,2" points="1374.22,-84 1374.22,-182 1615.44,-182 1615.44,-84 1374.22,-84"/>
<text xml:space="preserve" text-anchor="middle" x="1494.83" y="-164.7" font-family="Times New Roman,serif" font-size="14.00">Application Layer</text>
</g>
<!-- A -->
<g id="node1" class="node">
<title>A</title>
<ellipse fill="lightblue" stroke="black" cx="94.67" cy="-88" rx="78.67" ry="28.99"/>
<text xml:space="preserve" text-anchor="middle" x="94.67" y="-91.2" font-family="Times New Roman,serif" font-size="14.00">Laser Input</text>
<text xml:space="preserve" text-anchor="middle" x="94.67" y="-74.7" font-family="Times New Roman,serif" font-size="14.00">(Intensity Coded)</text>
</g>
<!-- B -->
<g id="node2" class="node">
<title>B</title>
<polygon fill="lightyellow" stroke="black" points="408.33,-108.5 278.33,-108.5 278.33,-67.5 408.33,-67.5 408.33,-108.5"/>
<text xml:space="preserve" text-anchor="middle" x="343.33" y="-91.2" font-family="Times New Roman,serif" font-size="14.00">Microring Resonator</text>
<text xml:space="preserve" text-anchor="middle" x="343.33" y="-74.7" font-family="Times New Roman,serif" font-size="14.00">(NOT Gate)</text>
</g>
<!-- A&#45;&gt;B -->
<g id="edge1" class="edge">
<title>A&#45;&gt;B</title>
<path fill="none" stroke="black" d="M173.71,-88C203.37,-88 237.08,-88 266.52,-88"/>
<polygon fill="black" stroke="black" points="266.49,-91.5 276.49,-88 266.49,-84.5 266.49,-91.5"/>
<text xml:space="preserve" text-anchor="middle" x="225.83" y="-91.2" font-family="Times New Roman,serif" font-size="14.00"> Input Light </text>
</g>
<!-- C -->
<g id="node3" class="node">
<title>C</title>
<ellipse fill="lightgreen" stroke="black" cx="634.03" cy="-121" rx="78.67" ry="28.99"/>
<text xml:space="preserve" text-anchor="middle" x="634.03" y="-124.2" font-family="Times New Roman,serif" font-size="14.00">Drop Port Output</text>
<text xml:space="preserve" text-anchor="middle" x="634.03" y="-107.7" font-family="Times New Roman,serif" font-size="14.00">(Inverted Signal)</text>
</g>
<!-- B&#45;&gt;C -->
<g id="edge2" class="edge">
<title>B&#45;&gt;C</title>
<path fill="none" stroke="black" d="M408.76,-95.36C449.5,-100.02 502.65,-106.1 546.97,-111.16"/>
<polygon fill="black" stroke="black" points="546.5,-114.63 556.83,-112.29 547.29,-107.68 546.5,-114.63"/>
<text xml:space="preserve" text-anchor="middle" x="472.83" y="-110.66" font-family="Times New Roman,serif" font-size="14.00"> Inverted Signal </text>
</g>
<!-- D -->
<g id="node4" class="node">
<title>D</title>
<ellipse fill="lightgrey" stroke="black" cx="634.03" cy="-45" rx="96.7" ry="28.99"/>
<text xml:space="preserve" text-anchor="middle" x="634.03" y="-48.2" font-family="Times New Roman,serif" font-size="14.00">Through Port Output</text>
<text xml:space="preserve" text-anchor="middle" x="634.03" y="-31.7" font-family="Times New Roman,serif" font-size="14.00">(Uninverted Residual)</text>
</g>
<!-- B&#45;&gt;D -->
<g id="edge3" class="edge">
<title>B&#45;&gt;D</title>
<path fill="none" stroke="black" d="M408.76,-78.4C445.98,-72.86 493.55,-65.77 535.29,-59.56"/>
<polygon fill="black" stroke="black" points="535.74,-63.03 545.12,-58.09 534.71,-56.1 535.74,-63.03"/>
<text xml:space="preserve" text-anchor="middle" x="472.83" y="-78.49" font-family="Times New Roman,serif" font-size="14.00"> Residual Signal </text>
</g>
<!-- E -->
<g id="node5" class="node">
<title>E</title>
<polygon fill="#fff68f" stroke="black" points="976.97,-141.5 860.47,-141.5 860.47,-100.5 976.97,-100.5 976.97,-141.5"/>
<text xml:space="preserve" text-anchor="middle" x="918.72" y="-124.2" font-family="Times New Roman,serif" font-size="14.00">Logic Network</text>
<text xml:space="preserve" text-anchor="middle" x="918.72" y="-107.7" font-family="Times New Roman,serif" font-size="14.00">(AND, OR, XOR)</text>
</g>
<!-- C&#45;&gt;E -->
<g id="edge4" class="edge">
<title>C&#45;&gt;E</title>
<path fill="none" stroke="black" d="M713.02,-121C755.6,-121 807.84,-121 848.89,-121"/>
<polygon fill="black" stroke="black" points="848.65,-124.5 858.65,-121 848.65,-117.5 848.65,-124.5"/>
<text xml:space="preserve" text-anchor="middle" x="795.6" y="-124.2" font-family="Times New Roman,serif" font-size="14.00"> Cascaded Gates </text>
</g>
<!-- F -->
<g id="node6" class="node">
<title>F</title>
<polygon fill="gold" stroke="black" points="1304.22,-141.5 1125.47,-141.5 1125.47,-100.5 1304.22,-100.5 1304.22,-141.5"/>
<text xml:space="preserve" text-anchor="middle" x="1214.85" y="-124.2" font-family="Times New Roman,serif" font-size="14.00">Regression / ML Block</text>
<text xml:space="preserve" text-anchor="middle" x="1214.85" y="-107.7" font-family="Times New Roman,serif" font-size="14.00">(Linear Regression, NN Unit)</text>
</g>
<!-- E&#45;&gt;F -->
<g id="edge5" class="edge">
<title>E&#45;&gt;F</title>
<path fill="none" stroke="black" d="M977.13,-121C1015.89,-121 1068.09,-121 1113.61,-121"/>
<polygon fill="black" stroke="black" points="1113.51,-124.5 1123.51,-121 1113.51,-117.5 1113.51,-124.5"/>
<text xml:space="preserve" text-anchor="middle" x="1051.22" y="-124.2" font-family="Times New Roman,serif" font-size="14.00"> Computation Stage </text>
</g>
<!-- G -->
<g id="node7" class="node">
<title>G</title>
<ellipse fill="palegreen" stroke="black" cx="1494.83" cy="-121" rx="112.61" ry="28.99"/>
<text xml:space="preserve" text-anchor="middle" x="1494.83" y="-124.2" font-family="Times New Roman,serif" font-size="14.00">Output Prediction</text>
<text xml:space="preserve" text-anchor="middle" x="1494.83" y="-107.7" font-family="Times New Roman,serif" font-size="14.00">(ML/Computation Result)</text>
</g>
<!-- F&#45;&gt;G -->
<g id="edge6" class="edge">
<title>F&#45;&gt;G</title>
<path fill="none" stroke="black" d="M1304.57,-121C1325.64,-121 1348.49,-121 1370.78,-121"/>
<polygon fill="black" stroke="black" points="1370.51,-124.5 1380.51,-121 1370.51,-117.5 1370.51,-124.5"/>
<text xml:space="preserve" text-anchor="middle" x="1343.22" y="-124.2" font-family="Times New Roman,serif" font-size="14.00"> Result </text>
</g>
</g>
</svg>
